<?xml version="1.0" encoding="utf-8"?>
<!-- Generator: Adobe Illustrator 26.0.0, SVG Export Plug-In . SVG Version: 6.00 Build 0)  -->
<svg version="1.1" id="Layer_1" xmlns="http://www.w3.org/2000/svg" xmlns:xlink="http://www.w3.org/1999/xlink" x="0px" y="0px"
	 viewBox="0 0 1163.9 135.2" style="enable-background:new 0 0 1163.9 135.2;" xml:space="preserve">
<style type="text/css">
	.st0{enable-background:new    ;}
	.st1{fill:#F6F6FD;}
	.st2{fill:#080917;}
</style>
<g class="st0">
	<path class="st1" d="M165.5,39.2h46.4V49h-17.3v47.8h-11.7V49h-17.3V39.2z"/>
</g>
<g class="st0">
	<path class="st1" d="M221.8,62.1h0.2c2.5-4.7,5.3-7.1,10.2-7.1c1.2,0,1.9,0.1,2.6,0.3v9.6h-0.2c-7.2-0.7-12.3,3.1-12.3,11.8v20.2
		h-11V55.4h10.6V62.1z"/>
	<path class="st1" d="M265.6,96.8V92h-0.2c-2.8,3.8-6,6-11.9,6c-9.2,0-14.4-5.9-14.4-14.9V55.4h10.9v25.7c0,4.8,2.2,7.5,6.9,7.5
		c5.2,0,8.3-3.9,8.3-9.4V55.4h11v41.4H265.6z"/>
</g>
<g class="st0">
	<path class="st1" d="M280.7,83.4h10.2c0.7,4.8,4.1,6.9,9,6.9c4.8,0,7.6-1.9,7.6-4.8c0-4-5.2-4.4-10.9-5.5
		c-7.4-1.5-14.7-3.5-14.7-12.5c0-9,7.4-13.2,16.9-13.2c10.9,0,16.9,5.4,17.7,13.7h-9.9c-0.5-4.4-3.3-6-8-6c-4.3,0-7.1,1.6-7.1,4.6
		c0,3.5,5.5,3.9,11.4,5.1c6.9,1.5,14.6,3.4,14.6,13.1c0,8.3-7.1,13.3-17.4,13.3C288.1,98,281.4,92.2,280.7,83.4z"/>
</g>
<g class="st0">
	<path class="st1" d="M319.2,55.4h5.7V42.5h10.7v12.9h7.1v7.3h-7.1v21.9c0,3.1,1.7,4.1,4.1,4.1c1.4,0,3.2-0.1,3.2-0.1v8.1
		c0,0-2.5,0.2-6.9,0.2c-5.3,0-11.2-2.1-11.2-9.9V62.7h-5.7V55.4z"/>
	<path class="st1" d="M348.5,39.2h11v57.6h-11V39.2z"/>
	<path class="st1" d="M364.7,76.1c0-12.3,8.3-21.8,20.4-21.8c13.3,0,20.4,10.2,20.4,24.9h-30c0.8,6.4,4.4,10.3,10.6,10.3
		c4.3,0,6.8-1.9,8-5.1h10.8c-1.5,7.3-8.1,13.5-18.7,13.5C372.5,98,364.7,88.4,364.7,76.1z M375.7,71.7h18.4
		c-0.3-5.2-3.8-8.9-8.8-8.9C379.5,62.8,376.7,66.3,375.7,71.7z"/>
	<path class="st1" d="M408,83.4h10.2c0.7,4.8,4.1,6.9,9,6.9c4.8,0,7.6-1.9,7.6-4.8c0-4-5.2-4.4-10.9-5.5
		c-7.4-1.5-14.7-3.5-14.7-12.5c0-9,7.4-13.2,16.9-13.2c10.9,0,16.9,5.4,17.7,13.7h-9.9c-0.5-4.4-3.3-6-8-6c-4.3,0-7.1,1.6-7.1,4.6
		c0,3.5,5.5,3.9,11.4,5.1c6.9,1.5,14.6,3.4,14.6,13.1c0,8.3-7.1,13.3-17.4,13.3C415.4,98,408.7,92.2,408,83.4z"/>
	<path class="st1" d="M447.1,83.4h10.2c0.7,4.8,4.1,6.9,9,6.9c4.8,0,7.6-1.9,7.6-4.8c0-4-5.2-4.4-10.9-5.5
		c-7.4-1.5-14.7-3.5-14.7-12.5c0-9,7.4-13.2,16.9-13.2c10.9,0,16.9,5.4,17.7,13.7H473c-0.5-4.4-3.3-6-8-6c-4.3,0-7.1,1.6-7.1,4.6
		c0,3.5,5.5,3.9,11.4,5.1c6.9,1.5,14.6,3.4,14.6,13.1c0,8.3-7.1,13.3-17.4,13.3C454.5,98,447.8,92.2,447.1,83.4z"/>
	<path class="st1" d="M500.8,68.2c0-17.1,10.6-30.2,27.7-30.2c14.2,0,22.6,8.5,23.8,19.4h-11.6c-1-5.8-5.4-9.6-12.2-9.6
		c-10.6,0-15.7,8.9-15.7,20.3c0,11.8,6.1,20.2,15.8,20.2c6.9,0,11.7-4.1,12.4-10.2h11.4c-0.3,5.1-2.5,10-6.4,13.6
		c-4,3.7-9.5,6.1-17.5,6.1C512.3,98,500.8,85.5,500.8,68.2z"/>
	<path class="st1" d="M583.6,96.8V92h-0.2c-2.8,3.8-6,6-11.9,6c-9.2,0-14.4-5.9-14.4-14.9V55.4h10.9v25.7c0,4.8,2.2,7.5,6.9,7.5
		c5.2,0,8.3-3.9,8.3-9.4V55.4h11v41.4H583.6z"/>
	<path class="st1" d="M611.9,62.1h0.2c2.5-4.7,5.3-7.1,10.2-7.1c1.2,0,1.9,0.1,2.6,0.3v9.6h-0.2c-7.2-0.7-12.3,3.1-12.3,11.8v20.2
		h-11V55.4h10.6V62.1z"/>
</g>
<g class="st0">
	<path class="st1" d="M640.2,62.1h0.2c2.5-4.7,5.3-7.1,10.2-7.1c1.2,0,1.9,0.1,2.6,0.3v9.6h-0.2c-7.2-0.7-12.3,3.1-12.3,11.8v20.2
		h-11V55.4h10.6V62.1z"/>
</g>
<g class="st0">
	<path class="st1" d="M654.7,76.1c0-12.3,8.3-21.8,20.4-21.8c13.3,0,20.4,10.2,20.4,24.9h-30c0.8,6.4,4.4,10.3,10.6,10.3
		c4.3,0,6.8-1.9,8-5.1h10.8c-1.5,7.3-8.1,13.5-18.7,13.5C662.4,98,654.7,88.4,654.7,76.1z M665.6,71.7H684c-0.3-5.2-3.8-8.9-8.8-8.9
		C669.4,62.8,666.6,66.3,665.6,71.7z"/>
	<path class="st1" d="M711.3,61.1h0.2c2.8-4.4,6.6-6.8,12.3-6.8c8.5,0,14.3,6.5,14.3,15.5v27h-11V71.4c0-4.4-2.6-7.6-7.2-7.6
		c-4.8,0-8.4,3.9-8.4,9.5v23.5h-11V55.4h10.7V61.1z"/>
</g>
<g class="st0">
	<path class="st1" d="M742.8,76.2c0-12.3,8.1-21.8,20.6-21.8c10.7,0,17.3,6.2,18.8,15.2h-10.7c-0.7-3.6-3.5-6.4-7.6-6.4
		c-6.6,0-10,5.1-10,13.1c0,7.8,3.1,13.1,9.8,13.1c4.4,0,7.6-2.3,8.3-7h10.6C781.9,91,775.1,98,764,98C751,98,742.8,88.5,742.8,76.2z
		"/>
</g>
<g class="st0">
	<path class="st1" d="M787.9,101.7h3.9c4.4,0,6.1-2.3,6.1-5.6c0-2.3-0.8-4.9-3.1-11.2l-11.1-29.4h11.5l6.1,18.6c1.3,3.8,2.7,9,2.7,9
		h0.2c0,0,1.1-5.2,2.4-9l5.8-18.6h11l-14.4,42.4c-3.1,9.2-6.2,12.5-14.6,12.5h-6.5V101.7z"/>
	<path class="st1" d="M841.5,39.2h25.3c6.7,0,11.7,1.9,15.1,5.4c3.2,3.3,5.2,7.8,5.2,13.1c0,10.9-7.2,18.2-19.3,18.2h-14.2v20.9
		h-12.1V39.2z M853.6,66.4h12.1c6.1,0,9.4-3.4,9.4-8.6c0-5.4-3.4-8.5-9.2-8.5h-12.3V66.4z"/>
</g>
<g class="st0">
	<path class="st1" d="M902.5,62.1h0.2c2.5-4.7,5.3-7.1,10.2-7.1c1.2,0,1.9,0.1,2.6,0.3v9.6h-0.2c-7.2-0.7-12.3,3.1-12.3,11.8v20.2
		h-11V55.4h10.6V62.1z"/>
</g>
<g class="st0">
	<path class="st1" d="M917.1,76.2c0-12.3,8.8-21.8,21.6-21.8c12.8,0,21.6,9.5,21.6,21.8c0,12.3-8.8,21.8-21.6,21.8
		C925.9,98,917.1,88.5,917.1,76.2z M949.2,76.2c0-8.1-3.8-13.5-10.5-13.5c-6.8,0-10.5,5.5-10.5,13.5c0,8.1,3.7,13.5,10.5,13.5
		C945.4,89.6,949.2,84.2,949.2,76.2z"/>
</g>
<g class="st0">
	<path class="st1" d="M962.1,55.4h5.7V42.5h10.7v12.9h7.1v7.3h-7.1v21.9c0,3.1,1.7,4.1,4.1,4.1c1.4,0,3.2-0.1,3.2-0.1v8.1
		c0,0-2.5,0.2-6.9,0.2c-5.3,0-11.2-2.1-11.2-9.9V62.7h-5.7V55.4z"/>
</g>
<g class="st0">
	<path class="st1" d="M988.9,76.2c0-12.3,8.8-21.8,21.6-21.8c12.8,0,21.6,9.5,21.6,21.8c0,12.3-8.8,21.8-21.6,21.8
		C997.7,98,988.9,88.5,988.9,76.2z M1021,76.2c0-8.1-3.8-13.5-10.5-13.5c-6.8,0-10.5,5.5-10.5,13.5c0,8.1,3.7,13.5,10.5,13.5
		C1017.2,89.6,1021,84.2,1021,76.2z"/>
	<path class="st1" d="M1035.2,76.2c0-12.3,8.1-21.8,20.6-21.8c10.7,0,17.3,6.2,18.8,15.2h-10.7c-0.7-3.6-3.5-6.4-7.6-6.4
		c-6.6,0-10,5.1-10,13.1c0,7.8,3.1,13.1,9.8,13.1c4.4,0,7.6-2.3,8.3-7h10.6c-0.7,8.8-7.6,15.8-18.6,15.8
		C1043.3,98,1035.2,88.5,1035.2,76.2z"/>
	<path class="st1" d="M1077.8,76.2c0-12.3,8.8-21.8,21.6-21.8c12.8,0,21.6,9.5,21.6,21.8c0,12.3-8.8,21.8-21.6,21.8
		C1086.5,98,1077.8,88.5,1077.8,76.2z M1109.8,76.2c0-8.1-3.8-13.5-10.5-13.5c-6.8,0-10.5,5.5-10.5,13.5c0,8.1,3.7,13.5,10.5,13.5
		C1106.1,89.6,1109.8,84.2,1109.8,76.2z"/>
	<path class="st1" d="M1126.2,39.2h11v57.6h-11V39.2z"/>
</g>
<path class="st1" d="M66.1,5.4C31.8,5.4,3.9,33.3,3.9,67.6s27.8,62.2,62.2,62.2s62.2-27.8,62.2-62.2l0,0
	C128.3,33.3,100.5,5.5,66.1,5.4z"/>
<path class="st2" d="M119.9,67.6c0-29.7-24.1-53.8-53.8-53.8l0,0v107.5C95.8,121.4,119.9,97.3,119.9,67.6z"/>
</svg>
